<svg width="447" height="109" viewBox="0 0 447 109" fill="none" xmlns="http://www.w3.org/2000/svg">
<path d="M8.25 83.668C13.4062 86.7617 19.0781 89.0391 25.2656 90.5C31.4531 91.9609 37.791 92.6914 44.2793 92.6914C48.6621 92.6914 52.3145 92.3906 55.2363 91.7891C58.1582 91.1875 60.5 90.4141 62.2617 89.4688C64.0234 88.5234 65.2695 87.4492 66 86.2461C66.7305 85.043 67.0957 83.8184 67.0957 82.5723C67.0957 80.7676 66.3008 79.2207 64.7109 77.9316C63.1641 76.6426 60.5859 75.998 56.9766 75.998C55.3008 75.998 53.4961 76.1055 51.5625 76.3203C49.6289 76.5352 47.5879 76.7715 45.4395 77.0293C43.334 77.2441 41.1211 77.459 38.8008 77.6738C36.5234 77.8887 34.2031 77.9961 31.8398 77.9961C26.6836 77.9961 22.2793 77.4375 18.627 76.3203C15.0176 75.2031 12.0742 73.6777 9.79688 71.7441C7.51953 69.8105 5.86523 67.5332 4.83398 64.9121C3.80273 62.248 3.28711 59.3906 3.28711 56.3398C3.28711 52.4727 4.18945 48.9062 5.99414 45.6406C7.79883 42.375 10.377 39.5605 13.7285 37.1973C17.0801 34.791 21.1191 32.9219 25.8457 31.5898C30.6152 30.2578 35.9219 29.5918 41.7656 29.5918C44.8164 29.5918 47.9961 29.7852 51.3047 30.1719C54.6562 30.5156 57.9434 30.9883 61.166 31.5898C64.3887 32.1914 67.4824 32.9004 70.4473 33.7168C73.4121 34.4902 76.0332 35.3281 78.3105 36.2305L72.3164 51.0547C67.4609 49.25 62.6055 47.832 57.75 46.8008C52.9375 45.7266 47.9746 45.1895 42.8613 45.1895C39.2949 45.1895 36.2656 45.4688 33.7734 46.0273C31.3242 46.543 29.3262 47.252 27.7793 48.1543C26.2324 49.0137 25.0938 50.0234 24.3633 51.1836C23.6758 52.3008 23.332 53.4824 23.332 54.7285C23.332 55.6309 23.5039 56.4473 23.8477 57.1777C24.2344 57.9082 24.8359 58.5527 25.6523 59.1113C26.5117 59.627 27.6074 60.0352 28.9395 60.3359C30.3145 60.5938 31.9902 60.7227 33.9668 60.7227C35.7715 60.7227 37.6836 60.6152 39.7031 60.4004C41.7227 60.1855 43.8281 59.9707 46.0195 59.7559C48.2109 59.498 50.4668 59.2617 52.7871 59.0469C55.1504 58.832 57.5566 58.7246 60.0059 58.7246C64.5605 58.7246 68.5352 59.2617 71.9297 60.3359C75.3672 61.4102 78.2031 62.9141 80.4375 64.8477C82.6719 66.7812 84.3477 69.0586 85.4648 71.6797C86.582 74.3008 87.1406 77.1582 87.1406 80.252C87.1406 84.248 86.2168 87.9648 84.3691 91.4023C82.5215 94.8398 79.7715 97.8262 76.1191 100.361C72.4668 102.854 67.9121 104.809 62.4551 106.227C57.041 107.645 50.7676 108.354 43.6348 108.354C39.252 108.354 35.0195 108.074 30.9375 107.516C26.8555 107 22.9668 106.291 19.2715 105.389C15.5762 104.443 12.0957 103.348 8.83008 102.102C5.60742 100.855 2.66406 99.5234 0 98.1055L8.25 83.668Z" fill="#EAF2FF"/>
<path d="M89.8941 0.0722656H108.972V63.2363L144.55 30.9453H173.748L133.98 66.5234L176.261 107H147.644L119.349 79.6074L108.972 88.8887V107H89.8941V0.0722656Z" fill="#EAF2FF"/>
<path d="M184.364 20.5684C182.474 20.5684 180.755 20.3105 179.208 19.7949C177.704 19.2363 176.415 18.5059 175.341 17.6035C174.267 16.6582 173.429 15.584 172.827 14.3809C172.269 13.1348 171.989 11.8242 171.989 10.4492C171.989 9.03125 172.269 7.7207 172.827 6.51758C173.429 5.27148 174.267 4.19727 175.341 3.29492C176.415 2.39258 177.704 1.68359 179.208 1.16797C180.755 0.609375 182.474 0.330078 184.364 0.330078C186.298 0.330078 188.017 0.609375 189.521 1.16797C191.067 1.68359 192.378 2.39258 193.452 3.29492C194.526 4.19727 195.343 5.27148 195.901 6.51758C196.503 7.7207 196.804 9.03125 196.804 10.4492C196.804 11.8242 196.503 13.1348 195.901 14.3809C195.343 15.584 194.526 16.6582 193.452 17.6035C192.378 18.5059 191.067 19.2363 189.521 19.7949C188.017 20.3105 186.298 20.5684 184.364 20.5684ZM174.825 30.9453H193.903V107H174.825V30.9453Z" fill="#EAF2FF"/>
<path d="M204.391 0.0722656H223.469V107H204.391V0.0722656Z" fill="#EAF2FF"/>
<path d="M233.957 30.9453H253.035V107H233.957V30.9453Z" fill="#EAF2FF"/>
<path d="M263.007 30.9453H282.086V37.3906C287.156 34.5117 291.99 32.4922 296.587 31.332C301.228 30.1719 305.761 29.5918 310.187 29.5918C315.988 29.5918 321.359 30.4512 326.3 32.1699C331.242 33.8457 335.517 36.3594 339.127 39.7109C342.736 43.0625 345.55 47.252 347.57 52.2793C349.632 57.2637 350.664 63.043 350.664 69.6172V107H331.65V72.7109C331.65 68.543 331.048 64.8262 329.845 61.5605C328.685 58.252 326.988 55.4805 324.754 53.2461C322.562 50.9688 319.877 49.25 316.697 48.0898C313.56 46.8867 310.037 46.2852 306.127 46.2852C304.064 46.2852 301.937 46.5 299.746 46.9297C297.597 47.3594 295.47 47.9824 293.365 48.7988C291.302 49.5723 289.304 50.5605 287.371 51.7637C285.437 52.9238 283.675 54.2559 282.086 55.7598V107H263.007V30.9453Z" fill="#EAF2FF"/>
<path d="M359.669 0.0722656H378.747V63.2363L414.325 30.9453H443.523L403.755 66.5234L446.036 107H417.419L389.124 79.6074L378.747 88.8887V107H359.669V0.0722656Z" fill="#EAF2FF"/>
<path d="M239.616 0.867082C239.794 -0.00794452 240.913 -0.303195 241.511 0.367043L247.455 7.02633C247.657 7.25251 247.946 7.38518 248.252 7.39222L258.226 7.62179C259.319 7.64693 259.703 9.05995 258.77 9.61965L250.248 14.7299C249.987 14.8865 249.804 15.1436 249.744 15.4389L247.978 24.1329C247.8 25.0079 246.681 25.3032 246.083 24.633L240.138 17.9737C239.936 17.7475 239.648 17.6148 239.342 17.6078L229.367 17.3782C228.275 17.3531 227.89 15.9401 228.824 15.3803L237.346 10.2701C237.607 10.1134 237.789 9.85636 237.849 9.56108L239.616 0.867082Z" fill="#60A5FA"/>
</svg>
